# xmcd
#
# Track frame offsets: 
#        150
#        16096
#        33748
#        51350
#        64542
#        80072
#        98171
#        115601
#        129041
#        142630
#        159195
#        170233
#
# Disc length: 2449 seconds
#
# Revision: 0
# Processed by: cddbd v1.5.2PL0 Copyright (c) Steve Scherf et al.
# Submitted via: ExactAudioCopy v1.3
#
DISCID=8e098f0c
DTITLE=Feed The Kitty - Ain't Dead Yet
DYEAR=2019
DGENRE=Country
TTITLE0=Home
TTITLE1=Thank You
TTITLE2=Darlin'
TTITLE3=My Last Name
TTITLE4=Sad Country Songs
TTITLE5=Shoulda Coulda Woulda
TTITLE6=I'm Not Scared Of Dying
TTITLE7=My Hotel
TTITLE8=Pajama Party
TTITLE9=Last Month's Rent
TTITLE10=Rule The World
TTITLE11=Learned To Fly
EXTD=
EXTT0=
EXTT1=
EXTT2=
EXTT3=
EXTT4=
EXTT5=
EXTT6=
EXTT7=
EXTT8=
EXTT9=
EXTT10=
EXTT11=
PLAYORDER=
